# xmcd CD database file
#
# Track frame offsets:
#	150
#	11835
#	24465
#	38070
#	52127
#	65995
#	79742
#	92440
#	106382
#	121455
#	134940
#	148315
#	162507
#	176227
#	189177
#	202850
#	216890
#	230860
#
# Disc length: 3257 seconds
#
# Revision: 1
# Processed by: cddbd v1.5PL3 Copyright (c) Steve Scherf et al.
# Submitted via: CDex 1.51
#
DISCID=150cb712
DTITLE=Bix Beiderbecke - Riverboat Shuffle - Original Recordings 1924-1929
DYEAR=2001
DGENRE=Jazz
TTITLE0=Riverboat Shuffle
TTITLE1=Davenport Blues
TTITLE2=Singin' The Blues
TTITLE3=For No Reason At All in C
TTITLE4=Three Blind Mice (Rhythmic Theme In Advanced Harmony)
TTITLE5=Krazy Kat (Tone Poem In Slow Rhythm)
TTITLE6=In A Mist (Bixology)
TTITLE7=Royal Garden Blues
TTITLE8=Goose Pimples
TTITLE9=Wringin' An' Twistin'
TTITLE10=Sorry
TTITLE11=Since My Best Gal Turned Me Down
TTITLE12=Thou Swell
TTITLE13=Louisiana
TTITLE14=The Love Nest
TTITLE15=Ol' Man River
TTITLE16=Futuristic Rhythm
TTITLE17=Somebody Stole My Gal
EXTD=YEAR: 2001
EXTT0=
EXTT1=
EXTT2=
EXTT3=
EXTT4=
EXTT5=
EXTT6=
EXTT7=
EXTT8=
EXTT9=
EXTT10=
EXTT11=
EXTT12=
EXTT13=
EXTT14=
EXTT15=
EXTT16=
EXTT17=
PLAYORDER=
